{
	"patcher" : 	{
		"fileversion" : 1,
		"appversion" : 		{
			"major" : 8,
			"minor" : 5,
			"revision" : 8,
			"architecture" : "x64",
			"modernui" : 1
		}
,
		"classnamespace" : "box",
		"rect" : [ 34.0, 87.0, 1852.0, 874.0 ],
		"bglocked" : 0,
		"openinpresentation" : 1,
		"default_fontsize" : 12.0,
		"default_fontface" : 0,
		"default_fontname" : "Arial",
		"gridonopen" : 1,
		"gridsize" : [ 15.0, 15.0 ],
		"gridsnaponopen" : 1,
		"objectsnaponopen" : 1,
		"statusbarvisible" : 2,
		"toolbarvisible" : 1,
		"lefttoolbarpinned" : 0,
		"toptoolbarpinned" : 0,
		"righttoolbarpinned" : 0,
		"bottomtoolbarpinned" : 0,
		"toolbars_unpinned_last_save" : 0,
		"tallnewobj" : 0,
		"boxanimatetime" : 200,
		"enablehscroll" : 1,
		"enablevscroll" : 1,
		"devicewidth" : 0.0,
		"description" : "",
		"digest" : "",
		"tags" : "",
		"style" : "",
		"subpatcher_template" : "",
		"assistshowspatchername" : 0,
		"boxes" : [ 			{
				"box" : 				{
					"id" : "obj-67",
					"linecount" : 4,
					"maxclass" : "message",
					"numinlets" : 2,
					"numoutlets" : 1,
					"outlettype" : [ "" ],
					"patching_rect" : [ 1217.0, 1237.0, 50.0, 62.0 ],
					"text" : "/ext/src/1/p 0.94275"
				}

			}
, 			{
				"box" : 				{
					"id" : "obj-65",
					"maxclass" : "newobj",
					"numinlets" : 2,
					"numoutlets" : 1,
					"outlettype" : [ "int" ],
					"patching_rect" : [ 1160.0, 935.0, 29.5, 22.0 ],
					"text" : "+ 1"
				}

			}
, 			{
				"box" : 				{
					"id" : "obj-64",
					"maxclass" : "newobj",
					"numinlets" : 2,
					"numoutlets" : 1,
					"outlettype" : [ "bang" ],
					"patching_rect" : [ 1124.800016760826111, 1070.400015950202942, 106.0, 22.0 ],
					"text" : "metro 1 @active 1"
				}

			}
, 			{
				"box" : 				{
					"id" : "obj-59",
					"maxclass" : "newobj",
					"numinlets" : 6,
					"numoutlets" : 1,
					"outlettype" : [ "" ],
					"patching_rect" : [ 1384.0, 966.0, 90.0, 22.0 ],
					"text" : "scale 0 50. 0. 1"
				}

			}
, 			{
				"box" : 				{
					"id" : "obj-43",
					"maxclass" : "newobj",
					"numinlets" : 1,
					"numoutlets" : 4,
					"outlettype" : [ "bang", "bang", "int", "int" ],
					"patching_rect" : [ 1160.0, 974.0, 50.5, 22.0 ],
					"text" : "t b b i i"
				}

			}
, 			{
				"box" : 				{
					"id" : "obj-42",
					"maxclass" : "message",
					"numinlets" : 2,
					"numoutlets" : 1,
					"outlettype" : [ "" ],
					"patching_rect" : [ 1373.5, 1184.800017654895782, 152.817719459533691, 22.0 ],
					"text" : "/ext/src/1/d $1"
				}

			}
, 			{
				"box" : 				{
					"id" : "obj-37",
					"maxclass" : "newobj",
					"numinlets" : 2,
					"numoutlets" : 1,
					"outlettype" : [ "float" ],
					"patching_rect" : [ 1261.5, 1020.0, 29.5, 22.0 ],
					"text" : "f"
				}

			}
, 			{
				"box" : 				{
					"id" : "obj-32",
					"maxclass" : "newobj",
					"numinlets" : 6,
					"numoutlets" : 1,
					"outlettype" : [ "" ],
					"patching_rect" : [ 1272.0, 974.0, 97.0, 22.0 ],
					"text" : "scale 0 360. 0. 1"
				}

			}
, 			{
				"box" : 				{
					"id" : "obj-30",
					"maxclass" : "newobj",
					"numinlets" : 2,
					"numoutlets" : 1,
					"outlettype" : [ "float" ],
					"patching_rect" : [ 1272.0, 937.0, 42.0, 22.0 ],
					"text" : "+ 180."
				}

			}
, 			{
				"box" : 				{
					"id" : "obj-29",
					"maxclass" : "newobj",
					"numinlets" : 2,
					"numoutlets" : 1,
					"outlettype" : [ "float" ],
					"patching_rect" : [ 1373.5, 1020.0, 29.5, 22.0 ],
					"text" : "f"
				}

			}
, 			{
				"box" : 				{
					"id" : "obj-28",
					"maxclass" : "newobj",
					"numinlets" : 1,
					"numoutlets" : 3,
					"outlettype" : [ "int", "float", "float" ],
					"patching_rect" : [ 1159.817719459533691, 894.666693329811096, 243.0, 22.0 ],
					"text" : "unpack 0 0. 0."
				}

			}
, 			{
				"box" : 				{
					"id" : "obj-24",
					"maxclass" : "newobj",
					"numinlets" : 1,
					"numoutlets" : 1,
					"outlettype" : [ "" ],
					"patching_rect" : [ 1536.817719459533691, 1065.600015878677368, 127.0, 22.0 ],
					"text" : "sprintf /ext/src/%i/d $1"
				}

			}
, 			{
				"box" : 				{
					"id" : "obj-23",
					"maxclass" : "message",
					"numinlets" : 2,
					"numoutlets" : 1,
					"outlettype" : [ "" ],
					"patching_rect" : [ 1032.199997782707214, 1184.800017654895782, 168.0, 22.0 ],
					"text" : "/ext/src/1/p $1"
				}

			}
, 			{
				"box" : 				{
					"id" : "obj-5",
					"maxclass" : "newobj",
					"numinlets" : 1,
					"numoutlets" : 1,
					"outlettype" : [ "" ],
					"patching_rect" : [ 1181.0, 1145.600017070770264, 127.0, 22.0 ],
					"text" : "sprintf /ext/src/%i/p $1"
				}

			}
, 			{
				"box" : 				{
					"id" : "obj-50",
					"linecount" : 3,
					"maxclass" : "comment",
					"numinlets" : 1,
					"numoutlets" : 0,
					"patching_rect" : [ 1516.949082016944885, 868.644027411937714, 150.0, 47.0 ],
					"text" : "You don't need a script, BECAUSE YOU DON'T NEED ROUTE"
				}

			}
, 			{
				"box" : 				{
					"id" : "obj-48",
					"maxclass" : "newobj",
					"numinlets" : 1,
					"numoutlets" : 0,
					"patching_rect" : [ 769.237253069877625, 886.186400175094604, 63.0, 22.0 ],
					"text" : "s loadstuff"
				}

			}
, 			{
				"box" : 				{
					"id" : "obj-47",
					"maxclass" : "newobj",
					"numinlets" : 1,
					"numoutlets" : 0,
					"patching_rect" : [ 754.237253069877625, 871.186400175094604, 63.0, 22.0 ],
					"text" : "s loadstuff"
				}

			}
, 			{
				"box" : 				{
					"id" : "obj-46",
					"maxclass" : "comment",
					"numinlets" : 1,
					"numoutlets" : 0,
					"patching_rect" : [ 610.305094122886658, 249.067789912223816, 150.0, 20.0 ],
					"presentation" : 1,
					"presentation_rect" : [ 278.0, 6.0, 150.0, 20.0 ],
					"text" : "Playback Position"
				}

			}
, 			{
				"box" : 				{
					"id" : "obj-44",
					"maxclass" : "comment",
					"numinlets" : 1,
					"numoutlets" : 0,
					"patching_rect" : [ 831.372884035110474, 246.067789912223816, 150.0, 20.0 ],
					"presentation" : 1,
					"presentation_linecount" : 2,
					"presentation_rect" : [ 11.423007965087891, 140.0, 60.0, 33.0 ],
					"text" : "Segment Time"
				}

			}
, 			{
				"box" : 				{
					"id" : "obj-79",
					"maxclass" : "newobj",
					"numinlets" : 1,
					"numoutlets" : 1,
					"outlettype" : [ "bang" ],
					"patching_rect" : [ 177.0, 900.0, 58.0, 22.0 ],
					"text" : "loadbang"
				}

			}
, 			{
				"box" : 				{
					"id" : "obj-78",
					"maxclass" : "newobj",
					"numinlets" : 1,
					"numoutlets" : 1,
					"outlettype" : [ "bang" ],
					"patching_rect" : [ 222.559330701828003, 178.067789912223816, 58.0, 22.0 ],
					"text" : "loadbang"
				}

			}
, 			{
				"box" : 				{
					"id" : "obj-58",
					"maxclass" : "newobj",
					"numinlets" : 1,
					"numoutlets" : 0,
					"patching_rect" : [ 1268.0, 1382.400020599365234, 135.0, 22.0 ],
					"text" : "udpsend localhost 8880"
				}

			}
, 			{
				"box" : 				{
					"id" : "obj-26",
					"maxclass" : "newobj",
					"numinlets" : 1,
					"numoutlets" : 1,
					"outlettype" : [ "" ],
					"patching_rect" : [ 1437.151061058044434, 821.333357810974121, 71.0, 22.0 ],
					"text" : "fromsymbol"
				}

			}
, 			{
				"box" : 				{
					"id" : "obj-4",
					"maxclass" : "message",
					"numinlets" : 2,
					"numoutlets" : 1,
					"outlettype" : [ "" ],
					"patching_rect" : [ 1159.817719459533691, 853.333358764648438, 297.0, 22.0 ],
					"text" : "stop"
				}

			}
, 			{
				"box" : 				{
					"id" : "obj-40",
					"maxclass" : "newobj",
					"numinlets" : 1,
					"numoutlets" : 1,
					"outlettype" : [ "" ],
					"patching_rect" : [ 312.0, 835.0, 71.0, 22.0 ],
					"text" : "fromsymbol"
				}

			}
, 			{
				"box" : 				{
					"id" : "obj-34",
					"maxclass" : "number",
					"numinlets" : 1,
					"numoutlets" : 2,
					"outlettype" : [ "", "bang" ],
					"parameter_enable" : 0,
					"patching_rect" : [ 558.305094122886658, 249.067789912223816, 50.0, 22.0 ],
					"presentation" : 1,
					"presentation_rect" : [ 226.0, 6.0, 50.0, 22.0 ]
				}

			}
, 			{
				"box" : 				{
					"id" : "obj-21",
					"maxclass" : "message",
					"numinlets" : 2,
					"numoutlets" : 1,
					"outlettype" : [ "" ],
					"patching_rect" : [ 421.796620965003967, 273.067789912223816, 43.0, 22.0 ],
					"presentation" : 1,
					"presentation_rect" : [ 112.423007965087891, 6.0, 43.0, 22.0 ],
					"text" : "Pause"
				}

			}
, 			{
				"box" : 				{
					"id" : "obj-14",
					"maxclass" : "message",
					"numinlets" : 2,
					"numoutlets" : 1,
					"outlettype" : [ "" ],
					"patching_rect" : [ 558.305094122886658, 273.067789912223816, 84.0, 22.0 ],
					"text" : "playbackAt $1"
				}

			}
, 			{
				"box" : 				{
					"id" : "obj-10",
					"maxclass" : "message",
					"numinlets" : 2,
					"numoutlets" : 1,
					"outlettype" : [ "" ],
					"patching_rect" : [ 512.355942368507385, 273.067789912223816, 33.0, 22.0 ],
					"presentation" : 1,
					"presentation_rect" : [ 159.0, 6.0, 33.0, 22.0 ],
					"text" : "Stop"
				}

			}
, 			{
				"box" : 				{
					"id" : "obj-13",
					"maxclass" : "message",
					"numinlets" : 2,
					"numoutlets" : 1,
					"outlettype" : [ "" ],
					"patching_rect" : [ 471.016960263252258, 273.067789912223816, 32.0, 22.0 ],
					"presentation" : 1,
					"presentation_rect" : [ 78.423007965087891, 6.0, 32.0, 22.0 ],
					"text" : "Play"
				}

			}
, 			{
				"box" : 				{
					"id" : "obj-31",
					"maxclass" : "number",
					"numinlets" : 1,
					"numoutlets" : 2,
					"outlettype" : [ "", "bang" ],
					"parameter_enable" : 0,
					"patching_rect" : [ 779.372884035110474, 246.067789912223816, 50.0, 22.0 ],
					"presentation" : 1,
					"presentation_rect" : [ 11.423007965087891, 176.0, 57.0, 22.0 ]
				}

			}
, 			{
				"box" : 				{
					"id" : "obj-25",
					"maxclass" : "message",
					"numinlets" : 2,
					"numoutlets" : 1,
					"outlettype" : [ "" ],
					"patching_rect" : [ 779.372884035110474, 273.067789912223816, 141.0, 22.0 ],
					"text" : "setactivesegmenttime $1"
				}

			}
, 			{
				"box" : 				{
					"fontsize" : 12.0,
					"id" : "obj-18",
					"maxclass" : "live.tab",
					"num_lines_patching" : 3,
					"num_lines_presentation" : 3,
					"numinlets" : 1,
					"numoutlets" : 3,
					"outlettype" : [ "", "", "float" ],
					"parameter_enable" : 1,
					"patching_rect" : [ 83.423007965087891, 313.000028610229492, 65.0, 94.0 ],
					"presentation" : 1,
					"presentation_rect" : [ 11.423007965087891, 31.000028610229492, 65.0, 94.0 ],
					"saved_attribute_attributes" : 					{
						"valueof" : 						{
							"parameter_enum" : [ "point", "path", "segment" ],
							"parameter_longname" : "live.tab",
							"parameter_mmax" : 2,
							"parameter_shortname" : "live.tab",
							"parameter_type" : 2,
							"parameter_unitstyle" : 9
						}

					}
,
					"varname" : "live.tab"
				}

			}
, 			{
				"box" : 				{
					"id" : "obj-2",
					"maxclass" : "live.text",
					"mode" : 0,
					"numinlets" : 1,
					"numoutlets" : 2,
					"outlettype" : [ "", "" ],
					"parameter_enable" : 1,
					"patching_rect" : [ 356.016960263252258, 229.467788338661194, 44.0, 15.0 ],
					"presentation" : 1,
					"presentation_rect" : [ 1057.0, 11.0, 44.0, 15.0 ],
					"saved_attribute_attributes" : 					{
						"valueof" : 						{
							"parameter_enum" : [ "val1", "val2" ],
							"parameter_longname" : "live.text",
							"parameter_mmax" : 1,
							"parameter_shortname" : "live.text",
							"parameter_type" : 2
						}

					}
,
					"text" : "Save",
					"varname" : "live.text"
				}

			}
, 			{
				"box" : 				{
					"id" : "obj-27",
					"linecount" : 2,
					"maxclass" : "message",
					"numinlets" : 2,
					"numoutlets" : 1,
					"outlettype" : [ "" ],
					"patching_rect" : [ 177.0, 947.0, 744.0, 35.0 ],
					"text" : "loadplots 0.61965 0.672727, loadlistener 0.706226 0.711111 0.627432 0.638384 0.560311 0.569697 0.525292 0.531313 0.33463 0.486869, loadsegtime 2500 3000 3001 6000"
				}

			}
, 			{
				"box" : 				{
					"id" : "obj-20",
					"maxclass" : "message",
					"numinlets" : 2,
					"numoutlets" : 1,
					"outlettype" : [ "" ],
					"patching_rect" : [ 357.01696914434433, 273.067789912223816, 39.0, 22.0 ],
					"text" : "dump"
				}

			}
, 			{
				"box" : 				{
					"id" : "obj-33",
					"maxclass" : "newobj",
					"numinlets" : 1,
					"numoutlets" : 4,
					"outlettype" : [ "", "", "", "" ],
					"patching_rect" : [ 1140.0, 174.0, 56.0, 22.0 ],
					"restore" : 					{
						"color" : [ 0.0, 0.107421875, 0.6875, 1.0, 0.640625, 1.0, 0.34375 ],
						"live.tab" : [ 0.0 ],
						"live.text" : [ 0.0 ],
						"plotsize" : [ 0.03 ]
					}
,
					"text" : "autopattr",
					"varname" : "u402000771"
				}

			}
, 			{
				"box" : 				{
					"id" : "obj-22",
					"maxclass" : "newobj",
					"numinlets" : 1,
					"numoutlets" : 1,
					"outlettype" : [ "" ],
					"patching_rect" : [ 222.559330701828003, 246.067789912223816, 89.0, 22.0 ],
					"text" : "vexpr $f1 * 255"
				}

			}
, 			{
				"box" : 				{
					"id" : "obj-19",
					"maxclass" : "message",
					"numinlets" : 2,
					"numoutlets" : 1,
					"outlettype" : [ "" ],
					"patching_rect" : [ 222.559330701828003, 273.067789912223816, 104.0, 22.0 ],
					"text" : "plotcolor $1 $2 $3"
				}

			}
, 			{
				"box" : 				{
					"id" : "obj-16",
					"maxclass" : "swatch",
					"numinlets" : 3,
					"numoutlets" : 2,
					"outlettype" : [ "", "float" ],
					"parameter_enable" : 0,
					"patching_rect" : [ 222.559330701828003, 206.067789912223816, 128.0, 32.0 ],
					"presentation" : 1,
					"presentation_rect" : [ 78.423007965087891, 535.0, 128.0, 32.0 ],
					"saturation" : 1.0,
					"varname" : "color"
				}

			}
, 			{
				"box" : 				{
					"format" : 6,
					"id" : "obj-15",
					"maxclass" : "flonum",
					"numinlets" : 1,
					"numoutlets" : 2,
					"outlettype" : [ "", "bang" ],
					"parameter_enable" : 0,
					"patching_rect" : [ 150.423007965087891, 175.0, 50.0, 22.0 ],
					"varname" : "plotsize"
				}

			}
, 			{
				"box" : 				{
					"id" : "obj-11",
					"maxclass" : "message",
					"numinlets" : 2,
					"numoutlets" : 1,
					"outlettype" : [ "" ],
					"patching_rect" : [ 150.423007965087891, 209.0, 66.0, 22.0 ],
					"text" : "plotsize $1"
				}

			}
, 			{
				"box" : 				{
					"filename" : "plotter.js",
					"id" : "obj-3",
					"maxclass" : "jsui",
					"numinlets" : 1,
					"numoutlets" : 2,
					"outlettype" : [ "", "" ],
					"parameter_enable" : 1,
					"patching_rect" : [ 150.423007965087891, 313.000028610229492, 1028.394711494445801, 495.742700474099365 ],
					"presentation" : 1,
					"presentation_rect" : [ 78.423007965087891, 31.000028610229492, 1028.394711494445801, 495.742700474099365 ],
					"varname" : "jsui"
				}

			}
, 			{
				"box" : 				{
					"alpha" : 0.35,
					"autofit" : 1,
					"forceaspect" : 1,
					"id" : "obj-38",
					"maxclass" : "fpic",
					"numinlets" : 1,
					"numoutlets" : 1,
					"outlettype" : [ "jit_matrix" ],
					"patching_rect" : [ 150.423007965087891, 313.000028610229492, 1028.394711494445801, 495.742700474099479 ],
					"pic" : "lsbuilding.png",
					"presentation" : 1,
					"presentation_rect" : [ 78.423007965087891, 31.000028610229492, 1028.394711494445801, 495.742700474099479 ]
				}

			}
, 			{
				"box" : 				{
					"id" : "obj-77",
					"maxclass" : "message",
					"numinlets" : 2,
					"numoutlets" : 1,
					"outlettype" : [ "" ],
					"patching_rect" : [ 150.42300800000001, 283.000028999999984, 33.0, 22.0 ],
					"text" : "read"
				}

			}
 ],
		"lines" : [ 			{
				"patchline" : 				{
					"destination" : [ "obj-3", 0 ],
					"source" : [ "obj-10", 0 ]
				}

			}
, 			{
				"patchline" : 				{
					"destination" : [ "obj-3", 0 ],
					"source" : [ "obj-11", 0 ]
				}

			}
, 			{
				"patchline" : 				{
					"destination" : [ "obj-3", 0 ],
					"source" : [ "obj-13", 0 ]
				}

			}
, 			{
				"patchline" : 				{
					"destination" : [ "obj-3", 0 ],
					"source" : [ "obj-14", 0 ]
				}

			}
, 			{
				"patchline" : 				{
					"destination" : [ "obj-11", 0 ],
					"source" : [ "obj-15", 0 ]
				}

			}
, 			{
				"patchline" : 				{
					"destination" : [ "obj-22", 0 ],
					"source" : [ "obj-16", 0 ]
				}

			}
, 			{
				"patchline" : 				{
					"destination" : [ "obj-3", 0 ],
					"source" : [ "obj-18", 1 ]
				}

			}
, 			{
				"patchline" : 				{
					"destination" : [ "obj-3", 0 ],
					"source" : [ "obj-19", 0 ]
				}

			}
, 			{
				"patchline" : 				{
					"destination" : [ "obj-20", 0 ],
					"source" : [ "obj-2", 0 ]
				}

			}
, 			{
				"patchline" : 				{
					"destination" : [ "obj-3", 0 ],
					"source" : [ "obj-20", 0 ]
				}

			}
, 			{
				"patchline" : 				{
					"destination" : [ "obj-3", 0 ],
					"source" : [ "obj-21", 0 ]
				}

			}
, 			{
				"patchline" : 				{
					"destination" : [ "obj-19", 0 ],
					"source" : [ "obj-22", 0 ]
				}

			}
, 			{
				"patchline" : 				{
					"destination" : [ "obj-58", 0 ],
					"order" : 0,
					"source" : [ "obj-23", 0 ]
				}

			}
, 			{
				"patchline" : 				{
					"destination" : [ "obj-67", 1 ],
					"order" : 1,
					"source" : [ "obj-23", 0 ]
				}

			}
, 			{
				"patchline" : 				{
					"destination" : [ "obj-42", 1 ],
					"source" : [ "obj-24", 0 ]
				}

			}
, 			{
				"patchline" : 				{
					"destination" : [ "obj-3", 0 ],
					"source" : [ "obj-25", 0 ]
				}

			}
, 			{
				"patchline" : 				{
					"destination" : [ "obj-4", 1 ],
					"source" : [ "obj-26", 0 ]
				}

			}
, 			{
				"patchline" : 				{
					"destination" : [ "obj-3", 0 ],
					"source" : [ "obj-27", 0 ]
				}

			}
, 			{
				"patchline" : 				{
					"destination" : [ "obj-30", 0 ],
					"source" : [ "obj-28", 2 ]
				}

			}
, 			{
				"patchline" : 				{
					"destination" : [ "obj-59", 0 ],
					"source" : [ "obj-28", 1 ]
				}

			}
, 			{
				"patchline" : 				{
					"destination" : [ "obj-65", 0 ],
					"source" : [ "obj-28", 0 ]
				}

			}
, 			{
				"patchline" : 				{
					"destination" : [ "obj-42", 0 ],
					"source" : [ "obj-29", 0 ]
				}

			}
, 			{
				"patchline" : 				{
					"destination" : [ "obj-26", 0 ],
					"order" : 0,
					"source" : [ "obj-3", 1 ]
				}

			}
, 			{
				"patchline" : 				{
					"destination" : [ "obj-4", 0 ],
					"order" : 1,
					"source" : [ "obj-3", 1 ]
				}

			}
, 			{
				"patchline" : 				{
					"destination" : [ "obj-40", 0 ],
					"source" : [ "obj-3", 0 ]
				}

			}
, 			{
				"patchline" : 				{
					"destination" : [ "obj-32", 0 ],
					"source" : [ "obj-30", 0 ]
				}

			}
, 			{
				"patchline" : 				{
					"destination" : [ "obj-25", 0 ],
					"source" : [ "obj-31", 0 ]
				}

			}
, 			{
				"patchline" : 				{
					"destination" : [ "obj-37", 1 ],
					"source" : [ "obj-32", 0 ]
				}

			}
, 			{
				"patchline" : 				{
					"destination" : [ "obj-14", 0 ],
					"source" : [ "obj-34", 0 ]
				}

			}
, 			{
				"patchline" : 				{
					"destination" : [ "obj-23", 0 ],
					"source" : [ "obj-37", 0 ]
				}

			}
, 			{
				"patchline" : 				{
					"destination" : [ "obj-28", 0 ],
					"source" : [ "obj-4", 0 ]
				}

			}
, 			{
				"patchline" : 				{
					"destination" : [ "obj-27", 1 ],
					"order" : 0,
					"source" : [ "obj-40", 0 ]
				}

			}
, 			{
				"patchline" : 				{
					"destination" : [ "obj-47", 0 ],
					"order" : 1,
					"source" : [ "obj-40", 0 ]
				}

			}
, 			{
				"patchline" : 				{
					"destination" : [ "obj-58", 0 ],
					"source" : [ "obj-42", 0 ]
				}

			}
, 			{
				"patchline" : 				{
					"destination" : [ "obj-24", 0 ],
					"source" : [ "obj-43", 3 ]
				}

			}
, 			{
				"patchline" : 				{
					"destination" : [ "obj-29", 0 ],
					"source" : [ "obj-43", 1 ]
				}

			}
, 			{
				"patchline" : 				{
					"destination" : [ "obj-37", 0 ],
					"source" : [ "obj-43", 0 ]
				}

			}
, 			{
				"patchline" : 				{
					"destination" : [ "obj-5", 0 ],
					"source" : [ "obj-43", 2 ]
				}

			}
, 			{
				"patchline" : 				{
					"destination" : [ "obj-23", 1 ],
					"source" : [ "obj-5", 0 ]
				}

			}
, 			{
				"patchline" : 				{
					"destination" : [ "obj-29", 1 ],
					"source" : [ "obj-59", 0 ]
				}

			}
, 			{
				"patchline" : 				{
					"destination" : [ "obj-43", 0 ],
					"source" : [ "obj-65", 0 ]
				}

			}
, 			{
				"patchline" : 				{
					"destination" : [ "obj-38", 0 ],
					"source" : [ "obj-77", 0 ]
				}

			}
, 			{
				"patchline" : 				{
					"destination" : [ "obj-16", 0 ],
					"source" : [ "obj-78", 0 ]
				}

			}
, 			{
				"patchline" : 				{
					"destination" : [ "obj-27", 0 ],
					"source" : [ "obj-79", 0 ]
				}

			}
 ],
		"parameters" : 		{
			"obj-18" : [ "live.tab", "live.tab", 0 ],
			"obj-2" : [ "live.text", "live.text", 0 ],
			"obj-3" : [ "jsui", "jsui", 0 ],
			"parameterbanks" : 			{
				"0" : 				{
					"index" : 0,
					"name" : "",
					"parameters" : [ "-", "-", "-", "-", "-", "-", "-", "-" ]
				}

			}
,
			"inherited_shortname" : 1
		}
,
		"dependency_cache" : [ 			{
				"name" : "SpatialPlotter.maxsnap",
				"bootpath" : "~/Documents/GitHub/MaxMSP-Toolz/Projects/SpatialPlotter/data",
				"patcherrelativepath" : "../data",
				"type" : "mx@s",
				"implicit" : 1
			}
, 			{
				"name" : "lsbuilding.png",
				"bootpath" : "~/Documents/GitHub/MaxMSP-Toolz/Projects/SpatialPlotter/media",
				"patcherrelativepath" : "../media",
				"type" : "PNG",
				"implicit" : 1
			}
, 			{
				"name" : "plotter.js",
				"bootpath" : "~/Documents/GitHub/MaxMSP-Toolz/Projects/SpatialPlotter/code",
				"patcherrelativepath" : "../code",
				"type" : "TEXT",
				"implicit" : 1
			}
 ],
		"autosave" : 1,
		"snapshot" : 		{
			"filetype" : "C74Snapshot",
			"version" : 2,
			"minorversion" : 0,
			"name" : "snapshotlist",
			"origin" : "jpatcher",
			"type" : "list",
			"subtype" : "Undefined",
			"embed" : 1,
			"snapshot" : 			{
				"valuedictionary" : 				{
					"parameter_values" : 					{
						"live.tab" : 0.0,
						"live.text" : 0.0
					}

				}

			}
,
			"snapshotlist" : 			{
				"current_snapshot" : 0,
				"entries" : [ 					{
						"filetype" : "C74Snapshot",
						"version" : 2,
						"minorversion" : 0,
						"name" : "SpatialPlotter",
						"origin" : "SpatialPlotter",
						"type" : "patcher",
						"subtype" : "Undefined",
						"embed" : 0,
						"snapshot" : 						{
							"valuedictionary" : 							{
								"parameter_values" : 								{
									"live.tab" : 0.0,
									"live.text" : 0.0
								}

							}

						}
,
						"fileref" : 						{
							"name" : "SpatialPlotter",
							"filename" : "SpatialPlotter.maxsnap",
							"filepath" : "~/Documents/GitHub/MaxMSP-Toolz/Projects/SpatialPlotter/data",
							"filepos" : -1,
							"snapshotfileid" : "f2633a5f5e17df8a6d901702b353c881"
						}

					}
 ]
			}

		}

	}

}
